<svg width="11" height="10" viewBox="0 0 11 10" fill="none" xmlns="http://www.w3.org/2000/svg">
<path fill-rule="evenodd" clip-rule="evenodd" d="M5.14611 2.4781L4.9876 8.02479L5.91094 7.4876L5.84815 2.46981C8.65036 2.88115 8.99004 6.72689 9.09696 8.45868L10 8.5C9.93097 4.28297 7.72452 1.91032 5.84 1.81837L5.82976 1L5.18038 1.27893L5.16369 1.8631C2.2782 2.29856 1.15354 5.50635 1 8.42769L1.90304 8.46901C1.92163 4.3442 3.91441 2.74923 5.14611 2.4781Z" fill="black"/>
<path d="M4.9876 8.02479L4.4878 8.01051L4.46213 8.90897L5.23904 8.45697L4.9876 8.02479ZM5.14611 2.4781L5.64591 2.49239L5.66421 1.85208L5.03862 1.98979L5.14611 2.4781ZM5.91094 7.4876L6.16237 7.91978L6.41455 7.77307L6.4109 7.48135L5.91094 7.4876ZM5.84815 2.46981L5.92077 1.97511L5.34086 1.88998L5.34819 2.47606L5.84815 2.46981ZM9.09696 8.45868L8.59791 8.48949L8.62557 8.93763L9.0741 8.95816L9.09696 8.45868ZM10 8.5L9.97714 8.99948L10.5086 9.0238L10.4999 8.49182L10 8.5ZM5.84 1.81837L5.34004 1.82462L5.34592 2.29485L5.81563 2.31777L5.84 1.81837ZM5.82976 1L6.32972 0.993745L6.32036 0.245105L5.63243 0.540586L5.82976 1ZM5.18038 1.27893L4.98305 0.819512L4.68971 0.945512L4.68059 1.26464L5.18038 1.27893ZM5.16369 1.8631L5.2383 2.3575L5.65155 2.29514L5.66348 1.87738L5.16369 1.8631ZM1 8.42769L0.500689 8.40144L0.474268 8.90415L0.977145 8.92716L1 8.42769ZM1.90304 8.46901L1.88019 8.96849L2.40069 8.9923L2.40304 8.47126L1.90304 8.46901ZM5.48739 8.03908L5.64591 2.49239L4.64632 2.46382L4.4878 8.01051L5.48739 8.03908ZM5.6595 7.05542L4.73616 7.59261L5.23904 8.45697L6.16237 7.91978L5.6595 7.05542ZM5.34819 2.47606L5.41097 7.49386L6.4109 7.48135L6.34811 2.46355L5.34819 2.47606ZM5.77554 2.9645C6.91075 3.13115 7.5921 3.98537 8.01358 5.14046C8.43489 6.29511 8.54451 7.62454 8.59791 8.48949L9.59601 8.42787C9.54249 7.56103 9.42881 6.10169 8.953 4.79769C8.47735 3.49413 7.58776 2.21981 5.92077 1.97511L5.77554 2.9645ZM9.0741 8.95816L9.97714 8.99948L10.0229 8.00052L9.11981 7.9592L9.0741 8.95816ZM10.4999 8.49182C10.464 6.29911 9.87177 4.55055 9.00982 3.32469C8.15431 2.108 7.00482 1.37461 5.86437 1.31896L5.81563 2.31777C6.5597 2.35408 7.45569 2.85299 8.1918 3.89987C8.92145 4.93758 9.46693 6.48385 9.50007 8.50818L10.4999 8.49182ZM5.3298 1.00626L5.34004 1.82462L6.33996 1.81211L6.32972 0.993745L5.3298 1.00626ZM5.37771 1.73834L6.02709 1.45941L5.63243 0.540586L4.98305 0.819512L5.37771 1.73834ZM5.66348 1.87738L5.68018 1.29321L4.68059 1.26464L4.66389 1.84882L5.66348 1.87738ZM5.08908 1.3687C3.45054 1.61598 2.33141 2.65622 1.61762 3.97522C0.909643 5.28351 0.579832 6.89565 0.500689 8.40144L1.49931 8.45393C1.57371 7.03839 1.883 5.58597 2.49711 4.45116C3.10541 3.32707 3.99135 2.54569 5.2383 2.3575L5.08908 1.3687ZM0.977145 8.92716L1.88019 8.96849L1.9259 7.96953L1.02286 7.92821L0.977145 8.92716ZM2.40304 8.47126C2.42087 4.51318 4.31001 3.17412 5.2536 2.96641L5.03862 1.98979C3.51882 2.32434 1.42238 4.17522 1.40305 8.46676L2.40304 8.47126Z" fill="#040506"/>
</svg>
